<?xml version="1.0" encoding="utf-8"?>
<!-- Generator: Adobe Illustrator 17.1.0, SVG Export Plug-In . SVG Version: 6.00 Build 0)  -->
<!DOCTYPE svg PUBLIC "-//W3C//DTD SVG 1.1//EN" "http://www.w3.org/Graphics/SVG/1.1/DTD/svg11.dtd">
<svg version="1.1" id="_x31_-01_xA0_Image_1_" xmlns="http://www.w3.org/2000/svg" xmlns:xlink="http://www.w3.org/1999/xlink"
	 x="0px" y="0px" viewBox="0 0 595.3 841.9" enable-background="new 0 0 595.3 841.9" xml:space="preserve">
<g>
	<path d="M446.4,493.1c-4.7,2.2-9.2,4.4-13.8,6.6c-42.2,20-84.5,40-126.7,60c-3.2,1.5-6.5,3-9.7,4.7c-1.1,0.6-2,0.5-3.1,0
		c-24.2-11.6-48.4-23.2-72.7-34.7c-24.7-11.8-49.5-23.5-74.2-35.3c-0.9-0.4-1.7-0.9-2.7-1.3c0-64,0-134,0-197.7L286.9,233
		l159.5,63.3L446.4,493.1z M285.8,375.7c-41.3-18.5-82-37.7-124-54.6c0,55,0,105.7,0,160.5c41.3,19.7,82.5,39.3,124,59
		C285.8,484.1,285.8,432,285.8,375.7z M304.4,375.5c-0.5,5.5-0.2,163.1,0.3,165.2c41.3-19.7,82.6-39.3,123.9-58.9
		c-0.1-55-0.1-107.7-0.1-162.8L304.4,375.5z M286.9,253.1l-116.8,50.5l125.7,55.1l121-54.6L286.9,253.1z"/>
	<path d="M478.8,301.2c0-8.9,0-17.9,0-27.1c-9.2,0-18.1,0-27.1,0c0-6.1,0-11.9,0-18.1c8.9,0,17.9,0,27,0c0-9.1,0-18,0-27.1
		c6.1-0.2,11.9-0.1,18-0.1c0,9.1,0,18,0,27.1c3.1,0.2,6,0.1,9,0.1s6.1,0,9.1,0c3,0,5.9,0,8.8,0c0.6,1.8,0.8,13.4,0.3,18.1
		c-3,0.1-6,0-9,0.1c-3,0-5.9,0-8.9,0s-6,0-9.3,0c0,9.2,0,18.1,0,27.2C490.7,301.2,484.9,301.2,478.8,301.2z"/>
</g>
</svg>
