<?xml version="1.0" encoding="UTF-8" standalone="no"?>
<!-- Generator: Adobe Illustrator 17.1.0, SVG Export Plug-In . SVG Version: 6.00 Build 0)  -->

<svg
   xmlns:dc="http://purl.org/dc/elements/1.1/"
   xmlns:cc="http://creativecommons.org/ns#"
   xmlns:rdf="http://www.w3.org/1999/02/22-rdf-syntax-ns#"
   xmlns:svg="http://www.w3.org/2000/svg"
   xmlns="http://www.w3.org/2000/svg"
   xmlns:sodipodi="http://sodipodi.sourceforge.net/DTD/sodipodi-0.dtd"
   xmlns:inkscape="http://www.inkscape.org/namespaces/inkscape"
   version="1.1"
   id="_x31_-01_xA0_Image_1_"
   x="0px"
   y="0px"
   viewBox="0 0 595.3 841.9"
   enable-background="new 0 0 595.3 841.9"
   xml:space="preserve"
   sodipodi:docname="Export.svg"
   inkscape:version="0.92.2 2405546, 2018-03-11"><metadata
   id="metadata13"><rdf:RDF><cc:Work
       rdf:about=""><dc:format>image/svg+xml</dc:format><dc:type
         rdf:resource="http://purl.org/dc/dcmitype/StillImage" /></cc:Work></rdf:RDF></metadata><defs
   id="defs11" /><sodipodi:namedview
   pagecolor="#ffffff"
   bordercolor="#666666"
   borderopacity="1"
   objecttolerance="10"
   gridtolerance="10"
   guidetolerance="10"
   inkscape:pageopacity="0"
   inkscape:pageshadow="2"
   inkscape:window-width="1920"
   inkscape:window-height="1056"
   id="namedview9"
   showgrid="false"
   inkscape:zoom="0.97454416"
   inkscape:cx="297.64999"
   inkscape:cy="420.95001"
   inkscape:window-x="1600"
   inkscape:window-y="0"
   inkscape:window-maximized="1"
   inkscape:current-layer="_x31_-01_xA0_Image_1_" />

<g
   id="g848"
   transform="translate(-360.3632,-208.05465)"><g
     id="g4"
     transform="translate(-2068.8598,211.38799)"><path
       id="path2-3"
       d="m 2860.715,493.296 c -4.469,2.092 -8.747,4.183 -13.121,6.275 -40.123,19.016 -80.341,38.031 -120.464,57.047 -3.042,1.426 -6.18,2.852 -9.222,4.469 -1.046,0.57 -1.902,0.475 -2.948,0 -23.009,-11.029 -46.018,-22.058 -69.122,-32.992 -23.484,-11.219 -47.063,-22.343 -70.548,-33.562 -0.856,-0.38 -1.616,-0.856 -2.567,-1.236 0,-60.85 0,-127.404 0,-187.969 l 136.342,-59.329 151.649,60.184 V 493.296 Z M 2708.02,381.674 c -39.267,-17.589 -77.964,-35.844 -117.896,-51.913 0,52.293 0,100.497 0,152.6 39.267,18.73 78.439,37.366 117.896,56.096 0,-53.718 0,-103.254 0,-156.783 z m 17.684,-0.19 c -0.475,5.229 -0.19,155.072 0.285,157.069 39.267,-18.73 78.534,-37.366 117.802,-56.001 -0.095,-52.293 -0.095,-102.399 -0.095,-154.787 z m -16.638,-116.375 -111.051,48.014 119.513,52.388 115.044,-51.913 z"
       inkscape:connector-curvature="0" /></g><g
     id="g16"
     transform="translate(-2068.8598,211.38799)"><line
       id="line6"
       y2="437.25201"
       x2="2962.573"
       y1="437.25201"
       x1="2784.3511" /><g
       id="g14"><line
         id="line8"
         y2="437.25201"
         x2="2943.052"
         y1="437.25201"
         x1="2784.3511"
         stroke-miterlimit="10"
         style="fill:none;stroke:#000000;stroke-width:18;stroke-miterlimit:10" /><g
         id="g12"><polygon
           id="polygon10"
           points="2883.409,510.869 2871.131,497.685 2936.143,437.269 2871.131,376.836 2883.409,363.652 2962.573,437.269 " /></g></g></g></g></svg>