<?xml version="1.0" encoding="utf-8"?>
<!-- Generator: Adobe Illustrator 17.1.0, SVG Export Plug-In . SVG Version: 6.00 Build 0)  -->
<!DOCTYPE svg PUBLIC "-//W3C//DTD SVG 1.1//EN" "http://www.w3.org/Graphics/SVG/1.1/DTD/svg11.dtd">
<svg version="1.1" id="Calque_1" xmlns="http://www.w3.org/2000/svg" xmlns:xlink="http://www.w3.org/1999/xlink" x="0px" y="0px"
	 viewBox="0 0 595.3 841.9" enable-background="new 0 0 595.3 841.9" xml:space="preserve">
<g id="scans_meÌmoire071_xA0_Image_1_">
</g>
<g id="Calque_2" display="none">
</g>
<g id="Calque_3" display="none">
</g>
<g id="Calque_4" display="none">
</g>
<g>
	<path d="M555.3,471.9l-3.8-17.1l-0.2,0.1c-7-27.1-20.3-54.6-39.3-81.1C482.6,333,441.5,297.2,393,270.4
		c-48.5-26.8-100.6-42.8-150.6-46c-33.9-2.2-65.4,1.4-93,10.5l-11.6,4.1l-10.5-17.8l-33.5,54.4l62.8,11.5l-7.4-19.6l11.9-5
		c23.3-7.4,50.2-10.2,79.3-8.3c45.7,3,93.4,17.6,138.1,42.4c44.6,24.7,82.3,57.4,109.1,94.7c17.4,24.2,29.2,49,35.2,73.2l0.3-0.1
		L525,477l-20.6,3.9l42.5,47.7l29.1-56.9L555.3,471.9z"/>
</g>
<path d="M46.5,396.8l3.8,17.1l0.2-0.1c7,27.1,20.3,54.6,39.3,81.1c29.3,40.8,70.4,76.6,118.9,103.4c48.5,26.8,100.6,42.8,150.6,46
	c33.9,2.2,65.4-1.4,93-10.5l11.6-4.1l10.5,17.8L508,593l-62.8-11.5l7.4,19.6l-11.9,5c-23.3,7.4-50.2,10.2-79.3,8.3
	c-45.7-3-93.4-17.6-138.1-42.4c-44.6-24.7-82.3-57.4-109.1-94.7c-17.4-24.2-29.2-49-35.2-73.2l-0.3,0.1l-1.9-12.6l20.6-3.9L55,340.1
	L25.9,397L46.5,396.8z"/>
</svg>
