<?xml version="1.0" encoding="utf-8"?>
<!-- Generator: Adobe Illustrator 17.1.0, SVG Export Plug-In . SVG Version: 6.00 Build 0)  -->
<!DOCTYPE svg PUBLIC "-//W3C//DTD SVG 1.1//EN" "http://www.w3.org/Graphics/SVG/1.1/DTD/svg11.dtd">
<svg version="1.1" id="Glyphas_x5F_CLDM1-16-01_xA0_Image_1_"
	 xmlns="http://www.w3.org/2000/svg" xmlns:xlink="http://www.w3.org/1999/xlink" x="0px" y="0px" viewBox="0 0 595.4 841.9"
	 enable-background="new 0 0 595.4 841.9" xml:space="preserve">
<g>
	<path d="M234.2,421.9c0.9-0.3,1.8-0.7,2.9-1.1c0.3-2.3,0.6-4.7,0.8-7c1-9.9,2-19.7,3.1-29.6c1-9.9,2.1-19.9,3.2-29.8
		c0.7-6.5,1.4-13,2-19.6c0.6-5.9,1.2-11.8,1.8-17.7c0.8-9,1.8-17.9,2.6-26.9c0.7-7.4,1.6-14.8,2.2-22.2c0.4-5.7,0.4-11.3,0.7-17
		c0.9-19.1,3-38.1,8.2-56.6c4.7-16.8,11.6-32.7,21.6-47.1c1.5-2.1,2.9-4.2,4.4-6.3c3.8-5.3,9.2-6.6,15.3-5.6
		c3.3,0.5,6.3,1.8,9.2,3.4c6.2,3.3,11.7,7.6,16.9,12.2c11.3,10.1,21.2,21.5,30.3,33.6c12.5,16.5,23.5,33.9,32.2,52.7
		c3.7,8.2,7,16.5,8.6,25.4c0.8,4.3,1.2,8.7,0.3,13.1c-0.6,3-1.9,5.7-4.1,8c-0.4,0.4-1,0.8-1,1.3c-0.1,0.9-0.8,1.1-1.4,1.3
		c-15.8,5.6-32.2,8.2-48.9,8.2c-7.9,0-15.7-0.4-23.4-1.4c-0.5-0.1-0.9,0-1.6-0.1c-0.1,0.6-0.3,1.2-0.3,1.8c-0.2,5.5-0.6,11-0.4,16.5
		c0.2,5.7,0.8,11.4,1.3,17.1c0.8,8.6,1.8,17.2,2.7,25.8c1,9.9,2.1,19.7,3.1,29.6c0.9,8.3,1.7,16.7,2.6,25c0.3,2.9,0.8,5.9,0.9,8.8
		c0.1,1.6,0,0.6,0.1,1.6L437.7,458l0.1,168.7l-150.4,61.7L138,626.6l0-168.9L234.2,421.9z M153.1,473.6c0,47.9,0,95.5,0,143.1
		c42.1,17.3,84,34.6,126,51.8c0.2,0.1,0.5,0.1,0.7,0.1c0.1,0,0.2,0,0.2-0.1c0.1,0,0.1-0.1,0.2-0.1c0-48.4,0-96.7,0-145.1
		C237.9,506.8,195.6,490.3,153.1,473.6z M422.7,616.6c0-47.5,0-94.9,0-142.6c-42.5,16.7-84.9,33.3-127.1,49.8c0,48.4,0,96.6,0,145.1
		C338.2,651.4,380.4,634,422.7,616.6z M262.2,328c-0.1,0.4-0.2,0.7-0.2,1c-1.3,12.6-2.5,25.1-3.7,37.7c-1,11-2,22-3,32.9
		c-0.3,2.9-0.7,5.9-1,8.8c-0.3,3-0.8,5.9-1.1,8.9c-0.6,5.4-1.5,10.7-2.1,16.1c-0.8,6.7-1.5,13.5-2.2,20.3c0,0.4,0.1,0.8,0.1,1.1
		c24.1,11.2,51.6,9.7,69.6-0.1c-3.7-42.4-7.4-84.8-11.1-127.2C292.2,332,277.3,331.8,262.2,328z M334.3,462.6
		c-1.8,1.3-2.8,2.2-4,2.8c-3.2,1.6-6.3,3.6-9.6,5c-18.4,7.5-37.4,9.2-56.9,5.1c-9.9-2.1-19.4-5.3-28.2-10.5l-2.9-2.3l1.8-17.9
		c0.2-2.2,0.4-4.4,0.7-7.2c-22.9,8.5-45.4,16.9-68.3,25.4c1.2,0.5,1.9,0.8,2.6,1.1c38.9,15.2,77.8,30.4,116.7,45.7
		c1.6,0.6,3,0.5,4.6-0.1c38.3-15,76.6-30,114.9-45c0.8-0.3,1.5-0.7,2.6-1.2c-25.8-9.1-51.1-18-76.6-27c0,0.6-0.1,0.9-0.1,1.2
		c0.6,6.1,1.3,12.2,1.9,18.4L334.3,462.6z M267,264.8c1,0.4,2,0.8,3,1.1c7.4,2.2,14.8,4.5,22.3,6.5c11,2.9,22.1,5.1,33.4,6.4
		c10.1,1.2,20.3,1.4,30.4,0.5c2.4-0.2,4.7-0.5,7.5-0.9c-17.9-14.4-32-31.5-44.8-49.7c-12.9-18.2-24-37.4-31.5-58.7
		c-2.4,4.8-4.6,9.5-6.5,14.3c-6.3,15.8-9.3,32.4-11,49.2C268.8,243.8,268,254.2,267,264.8z M300.9,151.5c-0.2,0.2-0.4,0.3-0.7,0.5
		c0.3,2.4,0.5,4.7,1,7.1c1.8,8.2,5,15.8,8.6,23.3c8.5,17.7,19.2,34.1,31.3,49.6c8.1,10.4,16.7,20.2,26.6,28.9
		c4.3,3.8,8.8,7.4,14.1,9.9c0.9,0.4,1.8,0.7,3.3,1.2c-0.3-2.6-0.4-4.6-0.8-6.6c-1.6-8-4.6-15.4-8.1-22.8
		c-8.8-18.7-20-35.9-32.7-52.1c-8.3-10.6-17.2-20.7-27.5-29.4c-3.4-2.9-7.2-5.3-10.9-7.8C303.7,152.5,302.3,152.1,300.9,151.5z
		 M304.3,290.6c-12.5-2.4-25-5.9-37.6-9.8c-1,10.7-2,21.1-3.1,31.6c1.6,0.6,3,1.1,4.5,1.5c6.3,1.7,12.8,2.1,19.2,1.8
		c4.9-0.2,9.7-0.8,14.4-2.3c1.5-0.5,2.3-1.4,2.3-2.9c0.2-6.5,0.3-12.9,0.5-19.4C304.5,291.1,304.5,291,304.3,290.6z"/>
</g>
</svg>
